<?xml version="1.0" encoding="utf-8"?>
<!-- Generator: Adobe Illustrator 24.0.0, SVG Export Plug-In . SVG Version: 6.00 Build 0)  -->
<svg version="1.1" id="Capa_1" xmlns="http://www.w3.org/2000/svg" xmlns:xlink="http://www.w3.org/1999/xlink" x="0px" y="0px"
	 viewBox="0 0 479 91" style="enable-background:new 0 0 479 91;" xml:space="preserve">
<style type="text/css">
	.st0{fill:#25424C;}
	.st1{fill:#FFFFFF;}
</style>
<g>
	<path class="st0" d="M170.4,15.9c0.3,1.7,1.9,3.1,3.7,3.1h11.5c1.7,0,3.4-1.4,3.7-3l1.8-9.6c0.2-0.8,0-1.7-0.5-2.3s-1.3-1-2.1-1
		h-17.1c-0.9,0-1.6,0.3-2.1,1c-0.5,0.6-0.7,1.4-0.6,2.3L170.4,15.9z"/>
	<path class="st0" d="M196.1,66l-2.4-15.1c-0.3-1.7-1.5-9-1.6-9.8L190,25c-0.2-1.7-1.8-3.1-3.5-3.1h-12.3c-1.7,0-3.3,1.4-3.6,3.1
		l-7,41c-0.3,1.6,0.5,3.8,1.7,5l12.3,11.8c0.6,0.6,1.4,0.9,2.3,0.9c0.9,0,1.7-0.3,2.3-0.9L194.5,71C195.7,69.8,196.4,67.6,196.1,66z
		"/>
</g>
<g>
	<path class="st1" d="M31.3,16.5h16v28c0,5.9-0.5,10.4-1.6,13.4c-1,3.1-3.1,5.7-6.3,7.8c-3.2,2.1-7.2,3.2-12.1,3.2
		c-5.2,0-9.2-0.7-12.1-2.1s-5.1-3.5-6.6-6.2c-1.6-2.7-2.5-6.1-2.8-10L21,48.5c0,2.3,0.2,4,0.6,5.1s1,2,1.9,2.7
		c0.6,0.4,1.5,0.7,2.6,0.7c1.8,0,3.1-0.7,3.9-2s1.2-3.6,1.2-6.7V16.5H31.3z"/>
	<path class="st1" d="M53.3,49.5c0-5.7,1.9-10.4,5.8-14.1c3.8-3.7,9-5.5,15.6-5.5c7.5,0,13.1,2.2,16.9,6.5c3.1,3.5,4.6,7.8,4.6,12.9
		c0,5.7-1.9,10.4-5.7,14.1s-9.1,5.5-15.8,5.5c-6,0-10.9-1.5-14.6-4.6C55.5,60.6,53.3,55.6,53.3,49.5z M67.6,49.5
		c0,3.3,0.7,5.8,2,7.4s3,2.4,5.1,2.4s3.8-0.8,5.1-2.4s2-4.1,2-7.6c0-3.2-0.7-5.6-2-7.2s-3-2.4-5-2.4c-2.1,0-3.8,0.8-5.2,2.4
		C68.3,43.7,67.6,46.2,67.6,49.5z"/>
	<path class="st1" d="M103.1,16.5h14.4v17.9c1.4-1.5,3.1-2.6,4.9-3.4c1.8-0.8,3.8-1.1,6-1.1c4.5,0,8.3,1.6,11.3,4.9s4.5,8,4.5,14.1
		c0,4.1-0.7,7.7-2,10.8c-1.4,3.1-3.2,5.4-5.6,7c-2.4,1.5-5.1,2.3-8,2.3c-2.5,0-4.8-0.5-6.9-1.6c-1.6-0.8-3.3-2.4-5.1-4.7v5.5h-13.4
		L103.1,16.5L103.1,16.5z M117.5,49.3c0,3.2,0.6,5.5,1.8,7c1.2,1.4,2.7,2.2,4.6,2.2c1.7,0,3.1-0.7,4.3-2.1s1.7-3.8,1.7-7.2
		c0-3-0.6-5.1-1.7-6.5c-1.1-1.4-2.5-2.1-4.1-2.1c-1.9,0-3.5,0.7-4.8,2.2S117.5,46.3,117.5,49.3z"/>
	<path class="st1" d="M246.4,47l14,4.2c-0.9,3.9-2.4,7.2-4.4,9.8c-2,2.6-4.5,4.6-7.5,5.9s-6.8,2-11.4,2c-5.6,0-10.2-0.8-13.7-2.4
		c-3.6-1.6-6.6-4.5-9.2-8.6s-3.9-9.3-3.9-15.7c0-8.5,2.3-15.1,6.8-19.7s11-6.9,19.2-6.9c6.5,0,11.6,1.3,15.3,3.9
		c3.7,2.6,6.5,6.7,8.3,12.1l-14.1,3.1c-0.5-1.6-1-2.7-1.5-3.4c-0.9-1.2-2-2.2-3.3-2.8c-1.3-0.7-2.7-1-4.3-1c-3.6,0-6.4,1.5-8.3,4.4
		c-1.5,2.2-2.2,5.5-2.2,10.1c0,5.7,0.9,9.6,2.6,11.7s4.2,3.2,7.3,3.2c3,0,5.3-0.9,6.9-2.6C244.5,52.7,245.7,50.2,246.4,47z"/>
	<path class="st1" d="M280.2,42.8l-13.7-1.4c0.5-2.4,1.3-4.3,2.2-5.6s2.4-2.6,4.2-3.6c1.3-0.7,3.1-1.3,5.4-1.7
		c2.3-0.4,4.8-0.6,7.5-0.6c4.3,0,7.7,0.2,10.3,0.7c2.6,0.5,4.8,1.5,6.5,3c1.2,1.1,2.2,2.5,2.9,4.5s1.1,3.8,1.1,5.5v16.5
		c0,1.8,0.1,3.1,0.3,4.1c0.2,1,0.7,2.3,1.5,3.8H295c-0.5-1-0.9-1.7-1.1-2.2s-0.3-1.3-0.5-2.4c-1.9,1.8-3.7,3.1-5.6,3.9
		c-2.5,1-5.5,1.5-8.8,1.5c-4.5,0-7.8-1-10.1-3.1c-2.3-2.1-3.5-4.6-3.5-7.6c0-2.8,0.8-5.2,2.5-7s4.7-3.2,9.2-4.1
		c5.4-1.1,8.8-1.8,10.4-2.3c1.6-0.4,3.3-1,5.1-1.7c0-1.8-0.4-3-1.1-3.7s-2-1.1-3.8-1.1c-2.3,0-4.1,0.4-5.3,1.1
		C281.5,40.1,280.7,41.2,280.2,42.8z M292.6,50.3c-2,0.7-4,1.3-6.2,1.9c-2.9,0.8-4.7,1.5-5.5,2.3s-1.2,1.7-1.2,2.6
		c0,1.1,0.4,2,1.2,2.8c0.8,0.7,1.9,1.1,3.5,1.1s3.1-0.4,4.4-1.2s2.3-1.7,2.9-2.8c0.6-1.1,0.9-2.6,0.9-4.3L292.6,50.3L292.6,50.3z"/>
	<path class="st1" d="M315.3,30.7h13.4v6.1c1.3-2.6,2.6-4.5,4-5.5s3.1-1.5,5.1-1.5c2.1,0,4.4,0.7,6.9,2L340.3,42
		c-1.7-0.7-3-1.1-4-1.1c-1.9,0-3.3,0.8-4.4,2.3c-1.5,2.2-2.2,6.3-2.2,12.2v12.5h-14.4V30.7z"/>
	<path class="st1" d="M389.7,52.9H361c0.3,2.3,0.9,4,1.9,5.1c1.4,1.6,3.2,2.4,5.4,2.4c1.4,0,2.7-0.4,4-1.1c0.8-0.4,1.6-1.2,2.5-2.4
		l14.1,1.3c-2.2,3.8-4.8,6.4-7.8,8.1s-7.4,2.4-13.1,2.4c-4.9,0-8.8-0.7-11.7-2.1s-5.2-3.6-7-6.6c-1.9-3-2.8-6.6-2.8-10.7
		c0-5.8,1.9-10.6,5.6-14.2s8.9-5.4,15.5-5.4c5.3,0,9.6,0.8,12.7,2.4s5.4,4,7.1,7c1.6,3.1,2.4,7.1,2.4,12v1.8H389.7z M375.2,46.1
		c-0.3-2.8-1-4.7-2.2-5.9s-2.8-1.8-4.8-1.8c-2.3,0-4.1,0.9-5.4,2.7c-0.9,1.1-1.4,2.8-1.7,5C361.1,46.1,375.2,46.1,375.2,46.1z"/>
	<path class="st1" d="M437.7,52.9H409c0.3,2.3,0.9,4,1.9,5.1c1.4,1.6,3.2,2.4,5.4,2.4c1.4,0,2.7-0.4,4-1.1c0.8-0.4,1.6-1.2,2.5-2.4
		l14.1,1.3c-2.2,3.8-4.8,6.4-7.8,8.1s-7.4,2.4-13.1,2.4c-4.9,0-8.8-0.7-11.7-2.1s-5.2-3.6-7-6.6c-1.9-3-2.8-6.6-2.8-10.7
		c0-5.8,1.9-10.6,5.6-14.2s8.9-5.4,15.5-5.4c5.3,0,9.6,0.8,12.7,2.4s5.4,4,7.1,7c1.6,3.1,2.4,7.1,2.4,12v1.8H437.7z M423.2,46.1
		c-0.3-2.8-1-4.7-2.2-5.9s-2.8-1.8-4.8-1.8c-2.3,0-4.1,0.9-5.4,2.7c-0.9,1.1-1.4,2.8-1.7,5C409.1,46.1,423.2,46.1,423.2,46.1z"/>
	<path class="st1" d="M444.4,30.7h13.4v6.1c1.3-2.6,2.6-4.5,4-5.5s3.1-1.5,5.1-1.5c2.1,0,4.4,0.7,6.9,2L469.4,42
		c-1.7-0.7-3-1.1-4-1.1c-1.9,0-3.3,0.8-4.4,2.3c-1.5,2.2-2.2,6.3-2.2,12.2v12.5h-14.4L444.4,30.7L444.4,30.7z"/>
</g>
</svg>
